<svg height="393" viewBox="0 0 800 393" width="800" xmlns="http://www.w3.org/2000/svg"><g fill="none" fill-rule="evenodd"><path d="m736.087023 196.025954c0 108.256489-150.451908 196.024428-336.044275 196.024428-185.589313 0-336.042748-87.767939-336.042748-196.024428 0-108.2580151 150.453435-196.025954 336.042748-196.025954 185.592367 0 336.044275 87.7679389 336.044275 196.025954" fill="#00112c"/><path d="m711.543511 195.955725c0 101.042748-139.584732 182.954199-311.772519 182.954199-172.186259 0-311.770992-81.911451-311.770992-182.954199 0-101.0412212 139.584733-182.955725 311.770992-182.955725 172.187787 0 311.772519 81.9145038 311.772519 182.955725zm-311.806106-169.955725c-161.415268 0-292.737405 76.230534-292.737405 169.928244 0 93.696183 131.322137 169.928245 292.737405 169.928245 161.419847 0 292.738931-76.232062 292.738931-169.928245 0-93.69771-131.319084-169.928244-292.738931-169.928244zm285.187786 169.928244c0 89.532825-127.935878 162.375573-285.187786 162.375573-157.253436 0-285.18626-72.842748-285.18626-162.375573 0-89.534351 127.932824-162.377099 285.18626-162.377099 157.251908 0 285.187786 72.842748 285.187786 162.377099z" fill="#fffffe"/><path d="m636.916895 286.003724c-86.296977-32.541951-149.746479-129.47588-153.412354-245.3067738 116.504048 20.4221552 201.42065 82.2872538 201.42065 155.2312938 0 33.296075-17.693504 64.283915-48.00831 90.075485zm-397.132643 44.294109c67.953661-45.249347 114.114748-133.807577 114.114748-235.610833v-59.0400593c5.945638-.5492549 11.952332-.9934688 18.014-1.3291769 2.006338 72.0370312 2.006338 126.0977762 0 162.1822362-1.977586 35.567355-7.886411 88.812186-17.726476 159.734492-41.860977-3.84197-80.702192-12.890182-114.402272-25.936659zm206.478519 25.8462c-9.85898-71.035855-15.778319-124.356454-17.758018-159.961797-2.002898-36.022602-2.006332-89.959911-.0103-161.8119265 6.065592.3473879 12.075731.8034481 18.0243 1.3646997v58.634227c0 101.7801368 46.140124 190.3212628 114.068456 235.5799988-33.646333 13.132042-72.464023 22.267652-114.324437 26.194803zm-283.464994-69.937124c-30.460458-25.831937-48.246632-56.895111-48.246632-90.278665 0-73.108174 85.297143-135.0874921 202.205626-155.3685218-3.62769 116.1336638-67.351855 213.2943888-153.958994 245.6471868z" fill="#0063dc"/><path d="m766.277201 247.170992c-3.152672 9.887023-14.227481 17.984733-24.610687 17.984733h-727.6748094c-10.38320606 0-16.29618316-8.09771-13.1435114-17.984733l32.5786259-102.184732c3.157252-9.88855 14.2320611-17.98626 24.6152672-17.98626h727.6748087c10.383207 0 16.296184 8.09771 13.143512 17.98626z" fill="#00112c"/><g fill-rule="nonzero"><path d="m777.22615 147h-719.1840637c-.5906152 0-1.8983235.468971-3.2162207 1.432151-1.3191769.964116-2.165744 2.07078-2.3440524 2.629238l-29.9992385 94.094336h719.1839393c.590523 0 1.897984-.468883 3.215111-1.431568 1.317232-.962762 2.161534-2.066786 2.340851-2.629139zm10.201259-5.658814-32.583043 102.184222c-1.56675 4.913449-8.020278 9.630317-13.177852 9.630317h-727.6748094c-2.2562446 0-2.3956978-.190868-1.7106765-2.339148l32.5787875-102.18524c1.5687814-4.913438 8.0241711-9.631337 13.1822707-9.631337h727.6748087c2.256339 0 2.39599.19115 1.710514 2.341186z" fill="#fff"/><path d="m131.95933 183.538493h-55.2558793c-2.7849609.949418-4.1774205 2.563405-4.1774205 4.84201 0 1.39248.7911702 2.373531 2.3735344 2.943182h46.2364494c3.417906.569651 6.155355 1.962111 8.212429 4.177421 2.057073 2.215309 3.085594 5.000229 3.085594 8.354841 0 4.050852-1.408283 7.532001-4.224891 10.443551s-6.345227 4.715418-10.585963 5.411658h-56.1103522c-2.3418989-1.139302-3.5128308-2.721643-3.5128308-4.747069 0-2.405193 1.4874-4.272355 4.4622446-5.601541h55.2558794c2.658372-.822829 3.987538-2.341876 3.987538-4.557186 0-1.519069-.759523-2.595061-2.278593-3.228006h-46.1415078c-3.4812011-.506357-6.2344734-1.819699-8.2598995-3.940067s-3.038124-4.857817-3.038124-8.212429c0-4.240736 1.4557532-7.880119 4.3673032-10.918258s6.550933-4.810361 10.918258-5.316717h54.8761141c2.848256.569651 4.272362 2.151991 4.272362 4.747068 0 2.595078-1.4874 4.462239-4.462245 5.601542zm78.776868 17.27933c-1.645659.443062-2.784944.696236-3.41789.759531h-49.559397l-1.993769 14.051323c-.126589 1.012713-.838642 1.946294-2.136181 2.80077-1.297539.854477-2.484294 1.281709-3.560301 1.281709-1.265892 0-2.452647-.506349-3.560302-1.519062s-1.59818-2.088704-1.471591-3.228007l5.411658-37.027136c.126589-1.139302.854466-2.215293 2.183652-3.228006s2.658351-1.519062 3.987537-1.519062h53.736818c2.152015 0 4.240705.664583 6.266131 1.993769 2.025426 1.329185 3.512826 2.958996 4.462244 4.88948.949419 1.930485 1.424121 3.876763 1.424121 5.838895 0 3.228023-1.170932 6.32941-3.512831 9.304255-2.341899 2.974844-5.095171 4.842006-8.259899 5.601541zm.284824-16.045093c-.506357-.822829-1.107646-1.234237-1.803886-1.234237h-48.704925l-1.139297 7.785192h48.135277c.506356 0 1.234233-.363938 2.183651-1.091826.949419-.727887 1.487415-1.345 1.614004-1.851356.126589-.316473.253176-.759529.379765-1.32918.063295-.69624-.158233-1.455763-.664589-2.278593zm94.347252 11.582848c-1.835542 1.962132-3.465353 3.275474-4.889481 3.940067-1.424127.664593-3.496993 1.123472-6.21866 1.37665h-4.367303c3.354612 2.088721 7.848459 4.841993 13.481675 8.2599 1.582364.949418 2.373535 2.246937 2.373535 3.892596 0 1.455775-.553819 2.784941-1.661474 3.987538-1.107655 1.202596-2.420998 1.803886-3.940067 1.803886-1.076008 0-2.120353-.316468-3.133066-.949414-8.861239-5.696511-17.848932-11.392936-26.96335-17.089447h-24.969581l-2.183652 14.336147c-1.455775 2.405194-3.29129 3.607772-5.5066 3.607772-2.468488 0-4.177415-1.360812-5.126834-4.082479l5.5066-37.501843c.189884-1.139302.933584-2.215293 2.231122-3.228006 1.297539-1.012713 2.610881-1.519062 3.940067-1.519062h53.831759c3.73438.443062 6.677533 1.803874 8.829548 4.082479 2.152015 2.278604 3.228007 5.190111 3.228007 8.734606 0 3.73438-1.4874 7.183882-4.462245 10.34861zm-8.734606-12.817085h-48.894808l-1.139296 7.785192h48.135276c2.658372-.316473 3.987538-1.93046 3.987538-4.84201 0-1.962131-.69623-2.943182-2.08871-2.943182zm97.195494 0h-58.768711l-1.139296 7.785192h58.199062c2.405193 1.202597 3.607772 2.753291 3.607772 4.652128 0 2.278604-1.4874 4.145766-4.462245 5.601541h-58.863651l-1.234238 7.785192h58.388945c2.278604 1.202597 3.417889 2.784937 3.417889 4.747069 0 2.21531-1.455753 4.082471-4.367303 5.601541h-63.990486c-1.265891 0-2.436823-.601289-3.512831-1.803886s-1.55071-2.405176-1.424121-3.607772l5.316717-36.362547c.189884-1.139302.949407-2.215293 2.278593-3.228006s2.626705-1.519062 3.892597-1.519062h62.851189c2.848256.569651 4.272362 2.151991 4.272362 4.747068 0 2.595078-1.4874 4.462239-4.462244 5.601542zm86.657001 31.615477c-.899286 4.557186-3.196348 4.272362-5.601541 4.272362-1.392481 0-2.769117-.443055-4.12995-1.329179s-2.642529-1.772235-3.845126-2.658359c-4.747092-2.91155-12.753735-7.880099-24.020167-14.905796l-20.982044-13.386733-4.082479 28.102646c-.949419 2.784961-2.879874 4.177421-5.791424 4.177421-2.658372 0-4.335653-1.39246-5.031893-4.177421l5.601541-38.73608c1.582364-2.341899 3.417879-3.512831 5.5066-3.512831 1.265891 0 2.721644.537996 4.367303 1.614003 1.265892.886124 17.753993 10.570111 26.488644 16.329917 7.278875 4.810387 14.589287 9.652348 21.931457 14.52603l4.082479-28.102647c1.012713-2.721666 2.943168-4.082479 5.791424-4.082479 2.658372 0 4.367299 1.39246 5.126834 4.177421zm65.86484 4.557186h-47.090921c-1.202597 0-2.341882-.617113-3.41789-1.851357s-1.55071-2.420999-1.424121-3.560301l5.316717-36.362547c.12659-1.139302.854466-2.215293 2.183652-3.228006s2.626705-1.519062 3.892596-1.519062h46.236449c2.911551 0 6.139525 1.202578 9.684021 3.607772 3.544495 2.405193 5.791419 4.936938 6.740837 7.59531 1.455775 2.595077 2.183652 5.44329 2.183652 8.544724 0 5.063565-1.867162 10.348582-5.601541 15.855209-3.797674 5.696511-9.462453 9.209307-16.994506 10.538493-.506357.063294-.854472.126588-1.044355.189882zm6.456013-35.508074-2.278592-.664589h-40.72985l-3.892596 25.824053h40.255142c.379768 0 1.202585-.189881 2.468476-.569648 3.354612-1.076008 6.044591-2.927346 8.070017-5.55407 2.025426-2.626725 3.038124-5.648995 3.038124-9.066902 0-5.316743-2.310217-8.639658-6.930721-9.968844zm100.993149 33.039598c-1.265891 1.582364-2.721644 2.373535-4.367303 2.373535-2.025426 0-4.430584-1.993749-7.215544-5.981307h-47.470687l-3.797655 3.797655c-1.708954 1.392481-3.291294 2.08871-4.747069 2.08871-1.202597 0-2.294412-.458878-3.275478-1.37665-.981065-.917771-1.471591-1.946292-1.471591-3.085594 0-1.329186.759524-2.816586 2.278593-4.462245 0-.063294 1.265872-1.329167 3.797655-3.797655 7.278875-7.342169 18.323611-18.228672 33.13454-32.659833.822829-.759534 1.89882-1.139296 3.228006-1.139296 1.265892 0 2.357707.411409 3.275478 1.234238s1.882999 1.993761 2.895712 3.512831l2.658358 3.797655c7.34217 10.190425 14.620936 20.507284 21.836516 30.950888.316473.569651.474707 1.17094.474707 1.803886 0 1.012713-.411408 1.993764-1.234238 2.943182zm-31.330653-31.14077-17.184389 17.184388h29.526767zm115.139413 33.704187h-63.705662c-1.202597 0-2.357705-.617112-3.46536-1.851356s-1.59818-2.421-1.471591-3.560302l5.506599-37.31196c1.392481-2.405193 3.227996-3.607772 5.5066-3.607772 3.038139 0 4.71542 1.58234 5.031893 4.747069l-4.557186 31.235712h58.104121c2.278604 1.202596 3.417889 2.784937 3.417889 4.747068 0 2.21531-1.455753 4.082472-4.367303 5.601541z" fill="#fffffe"/></g></g></svg>