<svg height="658" viewBox="0 0 800 658" width="800" xmlns="http://www.w3.org/2000/svg"><g fill="none" fill-rule="evenodd"><path d="m16.165168 490.51034c5.3900378-28.971453 28.5222834-45.141566 68.722982-45.141566 29.869793 0 44.916982 12.576754 52.103699 34.81066 1.796679 5.165453.44917 6.962133-5.614623 9.432567l-12.576755 5.390037c-5.390038 2.021265-7.411302 1.34751-9.207981-3.817943-4.267113-12.35217-12.1275851-18.865132-28.9714532-18.865132-21.7847362 0-33.6877363 6.737547-36.1581703 20.437226-1.1229245 7.860472 1.7966793 13.025925 9.2079813 15.945529 7.4113019 2.919604 13.9242643 4.491698 25.8272644 5.614623 37.5056798 4.267113 53.4512078 21.335566 48.2857558 51.205359-5.614623 30.768132-29.1960386 46.039906-70.7442466 46.039906-32.5648117 0-51.65452896-12.576755-56.81998185-37.50568-.89833964-5.614623.89833963-8.085057 6.51296234-9.881736l13.02592471-4.491698c5.6146227-1.796679 7.186717-.673755 8.7588114 4.716283 3.3687736 13.924264 13.9242643 20.886397 31.4418872 20.886397 23.5814154 0 36.831925-7.860472 39.7515288-23.356831 2.470434-13.699679-9.4325662-18.415962-31.891057-20.886396-12.35217-1.122925-20.8863965-2.919604-31.4418872-7.860472-5.3900378-2.470434-9.6571511-5.390038-12.8013398-8.758812-6.2883774-6.962132-10.1063209-18.865132-7.411302-33.912321zm140.590153 4.491698c12.35217-4.267113 27.399359-6.512962 44.692396-6.512962 31.441888 0 44.467812 17.517623 39.077775 47.162831l-5.614623 30.543547c-5.165453 30.318963-24.25517 45.366152-57.718322 45.366152-5.614622 0-13.250509-1.34751-22.90766-4.042528l-7.635887 43.120302c-.673755 4.716283-3.593359 6.962132-8.309642 6.962132h-12.127585c-5.165453 0-6.512962-1.796679-5.614623-6.962132l25.15351-142.836002c1.572095-7.186717 3.593359-9.881736 11.004661-12.80134zm52.777453 68.722982 5.165453-29.196038c2.470434-14.822604-4.491698-22.233906-21.110981-22.233906-7.860472 0-14.822604.89834-20.886397 2.470434-1.347509.44917-2.245849 1.34751-2.695019 2.919604l-11.678415 66.701718c8.309642 2.245849 15.271774 3.368774 20.886397 3.368774 17.068453 0 27.174773-8.085057 30.318962-24.030586zm100.164869-75.235944h7.411302c5.165453 0 6.737548 1.572094 5.839208 6.962132l-1.796679 9.881736c-.673755 4.716283-3.368774 6.962132-8.085057 6.962132h-8.085057c-8.309641 0-15.720943.89834-22.009321 2.695019-1.122924.224585-2.021264 1.122925-2.695019 2.695019l-14.598019 83.545586c-.673754 4.716283-3.593358 6.962132-8.309641 6.962132h-12.127585c-5.165453 0-6.512963-1.796679-5.614623-6.962132l16.394698-93.202737c1.572095-7.186717 3.593359-9.881736 10.780076-12.80134 11.678415-4.042528 26.051849-6.288377 42.895717-6.737547zm2.470434 72.316341 4.940868-26.725605c5.390038-29.420623 26.950189-45.590736 60.413341-45.590736 15.271773 0 26.950189 3.817943 35.035245 11.45383 8.085057 7.860472 11.004661 17.966793 8.534227 30.318963-3.817944 21.560151-22.009321 31.217302-55.023303 31.217302-8.085056 0-17.293038-.898339-27.623943-2.695019l-1.34751 7.860472c-2.470434 14.598019 4.940868 22.458491 21.784736 22.458491 12.80134 0 22.458491-3.817943 28.971453-11.678415 4.716284-5.165453 7.186718-6.063793 11.903001-2.695019l6.962132 4.491698c4.267113 2.919604 4.491698 6.737547.673755 11.45383-11.004661 13.924265-28.522284 20.886397-52.552869 20.886397-17.517623 0-29.645208-4.716283-36.60734-14.373434-6.962132-9.432566-8.983396-21.560151-6.063793-36.382755zm83.770171-33.463152c2.021264-10.780075-5.839207-16.843868-22.233906-16.843868-16.394698 0-27.848528 8.983396-30.768132 23.581415l-.89834 4.716284c10.555491 1.796679 19.763472 2.695018 27.623944 2.695018 15.496359 0 24.25517-4.716283 26.276434-14.148849zm44.467812-31.217302c13.699679-5.165453 28.746868-7.635887 45.366152-7.635887 31.217302 0 43.794057 17.517623 38.628604 47.162831l-11.453831 65.578793c-1.122924 5.165453-3.144188 6.962132-8.309641 6.962132h-12.35217c-5.165453 0-6.512962-1.796679-5.390038-6.962132l11.678415-66.926303c2.695019-14.598019-4.042528-22.009321-20.437226-22.009321-7.411302 0-14.822604.89834-22.233906 2.919604-.673755.224585-1.34751 1.122925-2.021264 2.245849l-14.598019 83.770171c-.673755 4.716283-3.368774 6.962132-8.085057 6.962132h-12.35217c-5.165453 0-6.512962-1.796679-5.614623-6.962132l16.170114-92.304397c1.572094-7.186717 3.593358-9.881736 11.00466-12.80134zm92.304397 67.600057 5.390038-30.768132c5.165453-29.645208 23.356831-44.467812 54.574133-44.467812 7.186717 0 15.945528.89834 26.051849 2.919604l7.635887-42.446548c.673755-4.716283 3.368774-6.962132 8.085057-6.962132h12.35217c5.165453 0 6.512962 1.796679 5.614623 6.962132l-25.15351 143.060587c-1.122925 7.186717-3.144189 9.432566-11.004661 12.35217-13.699679 4.716283-28.297698 7.186717-43.344887 7.186717-32.340227 0-45.590736-18.191378-40.200699-47.836586zm70.070492 19.089718 11.903-67.600058c-8.534227-2.021264-15.496359-2.919604-21.110981-2.919604-17.966793 0-27.174774 6.962132-30.094378 23.806001l-5.165453 29.196038c-2.695019 15.047189 4.267113 22.458491 21.110981 22.458491 7.860472 0 15.047189-.89834 21.335567-2.470434.898339-.44917 1.572094-1.34751 2.021264-2.470434zm39.751529-19.763472 5.614622-30.543548c5.165453-30.543547 23.356831-44.018642 58.167492-44.018642 17.068453 0 30.318962 2.245849 39.526944 6.962132 6.512962 3.368774 7.186717 5.165453 6.063792 12.35217l-15.945528 89.833964c-.89834 5.165452-2.695019 6.962132-8.309642 8.534226-14.822604 3.593359-29.869793 5.390038-45.366152 5.390038-31.217302 0-45.141566-19.089717-39.751528-48.51034zm79.727642-48.285756c-5.390038-1.572094-11.45383-2.470434-18.191377-2.470434-18.191378 0-27.848529 6.737548-30.768133 23.581416l-5.165453 29.196038c-2.470434 15.047189 4.267113 22.683076 20.437227 22.683076 7.411302 0 15.271774-.89834 23.581415-2.919604l11.903-67.150888c.44917-1.347509-.224584-2.245849-1.796679-2.919604zm77.481794-65.803378-26.725605 152.268568c-1.122924 5.165453-3.144188 6.962132-8.309641 6.962132h-12.127585c-5.390038 0-6.737547-1.796679-5.614623-6.962132l26.725604-152.268568c.89834-5.165453 2.919604-6.962132 8.309642-6.962132h12.127585c5.165453 0 6.512962 1.796679 5.614623 6.962132z" fill="#1565c0"/><g transform="translate(125)"><path d="m336.527697 72.5985291h-144.226456c-66.273562 0-120.1887129 53.9644339-120.1887129 120.2867949 0 66.32236 53.9151509 120.286795 120.1887129 120.286795h144.226456c66.274261 0 120.188713-53.964435 120.188713-120.286795 0-17.109036-3.643672-33.364159-10.105769-48.114438h-56.484603c11.469522 12.783482 18.514887 29.619545 18.514887 48.114438 0 39.797896-32.347552 72.170957-72.113228 72.170957h-144.226456c-39.765676 0-72.113228-32.373061-72.113228-72.170957s32.347552-72.170957 72.113228-72.170957h240.148036c-21.952946-29.1505937-56.721687-48.1158379-95.92158-48.1158379z" fill="#1565c0"/><path d="m514.671771 120.714367c-7.088724-17.458999-16.642698-33.6357314-28.267479-48.1158379h-70.324962c18.521881 12.3103301 33.967971 28.8174289 45.161247 48.1158379z" fill="#1565c0"/><path d="m192.301241 144.770886c-26.507885 0-48.075485 21.578775-48.075485 48.114438s21.5676 48.114438 48.075485 48.114438h144.226456c26.508586 0 48.075485-21.578775 48.075485-48.114438s-21.566899-48.114438-48.075485-48.114438z" fill="#8cb811"/><path d="m540.244611 120.714367h9.755389v-48.1158379h-33.715502c9.935125 14.8216718 17.893155 31.0222009 23.960113 48.1158379z" fill="#00447c"/><path d="m435.185179.42757241c23.57966 12.15774659 44.564691 28.53465779 62.131945 48.11443789h52.682876v-48.11443789z" fill="#00447c"/><path d="m472.340139 144.770886c5.349413 15.076446 8.414014 31.22518 8.414014 48.114438 0 79.595792-64.701398 144.343313-144.226455 144.343313h-144.226457c-79.525056 0-144.2264549-64.747521-144.2264549-144.343313s64.7013989-144.3433137 144.2264549-144.3433137h270.995458c-33.886846-29.8463216-78.187179-48.11443789-126.769002-48.11443789h-144.226456c-106.0336425 0-192.301241 86.33749609-192.301241 192.45775159 0 106.120255 86.2675985 192.457751 192.301241 192.457751h144.226456c106.033643 0 192.30194-86.337496 192.30194-192.457751 0-16.638684-2.34286-32.703427-6.328519-48.114438z" fill="#1565c0"/></g></g></svg>