<?xml version="1.0" encoding="UTF-8" standalone="no"?>
<svg width="500px" height="500px" viewBox="0 0 500 500" version="1.1" xmlns="http://www.w3.org/2000/svg" xmlns:xlink="http://www.w3.org/1999/xlink">
    <!-- Generator: Sketch 3.7.2 (28276) - http://www.bohemiancoding.com/sketch -->
    <title>Icon</title>
    <desc>Created with Sketch.</desc>
    <defs></defs>
    <g id="Page-1" stroke="none" stroke-width="1" fill="none" fill-rule="evenodd">
        <g id="Icon" fill="#333333">
            <path d="M199.61326,195.930018 C163.468205,175.696645 138.422415,158.213702 124.475138,143.480663 C110.527862,128.747624 103.554328,112.639744 103.554328,95.1565378 C103.554328,68.2441871 116.519207,47.323586 142.449355,32.3941068 C168.379503,17.4646276 204.622235,10 251.178637,10 C284.180644,10 315.21778,13.3394387 344.290976,20.0184162 L344.290976,81.3075506 C313.449815,70.1104413 281.921585,64.5119705 249.705341,64.5119705 C230.061289,64.5119705 215.328471,66.7710026 205.506446,71.2891344 C195.68442,75.8072663 190.773481,82.4861436 190.773481,91.3259669 C190.773481,99.9693495 200.202484,109.987666 219.060773,121.381215 L246.758748,138.766114 L273.867403,155.267035 L300.092081,171.473297 C339.576625,196.421242 367.912744,221.61436 385.101289,247.053407 C402.289834,272.492454 410.883978,302.203636 410.883978,336.187845 C410.883978,381.565604 396.003832,418.544977 366.243094,447.127072 C336.482356,475.709167 298.029702,490 250.883978,490 C203.738254,490 165.138272,476.544027 135.082873,449.631676 C105.027474,422.719325 90,388.244532 90,346.206262 C90,312.222052 99.134347,282.707308 117.403315,257.661142 C135.672283,232.614976 163.075324,212.038141 199.61326,195.930018 L199.61326,195.930018 Z M250.589319,231.289134 C227.212897,244.64709 209.729954,260.656751 198.139963,279.3186 C186.549973,297.980449 180.755064,319.293926 180.755064,343.259669 C180.755064,370.761341 187.286614,393.007895 200.349908,410 C213.413202,426.992105 230.454161,435.488029 251.473297,435.488029 C271.510229,435.488029 287.912766,426.746558 300.6814,409.263352 C313.450033,391.780146 319.834254,369.288044 319.834254,341.786372 C319.834254,317.034867 314.677768,296.458032 304.364641,280.055249 C294.051514,263.652466 276.126586,247.397257 250.589319,231.289134 L250.589319,231.289134 Z" id="δ"></path>
        </g>
    </g>
</svg>