<svg viewBox="0 0 449 117" xmlns="http://www.w3.org/2000/svg"><g fill="none" fill-rule="evenodd"><path d="m178.95 96.11c15.707 0 24.907-7.854 30.629-16.829l-11.219-5.722c-3.59 6.283-10.771 10.883-19.41 10.883-14.249 0-25.24-11.332-25.24-27.04 0-15.707 10.995-27.04 25.24-27.04 8.639 0 15.819 4.712 19.41 10.883l11.219-5.722c-5.61-8.976-14.922-16.829-30.629-16.829-21.541 0-38.707 15.707-38.707 38.707 0 23 17.17 38.707 38.707 38.707m34.995-1.346h11.78v-74.834h-11.78v74.834m45.654 1.346c17.39 0 27.936-12.902 27.936-28.497 0-15.483-10.546-28.385-27.936-28.385-17.17 0-27.824 12.902-27.824 28.385 0 15.595 10.658 28.497 27.824 28.497m0-10.434c-9.985 0-15.595-8.415-15.595-18.06 0-9.537 5.61-17.951 15.595-17.951 10.1 0 15.707 8.415 15.707 17.951 0 9.649-5.61 18.06-15.707 18.06m69.888 9.09h14.81l-23-29.619 22.551-24.571h-14.585l-23.897 26.14v-46.785h-11.78v74.834h11.78v-14.585l7.517-7.741 16.605 22.327m11.1-27.15c0 17.17 12.12 28.497 28.385 28.497 8.639 0 16.605-2.693 21.99-7.854l-5.385-7.741c-3.815 3.815-10.1 5.946-15.371 5.946-10.21 0-16.38-6.732-17.278-14.922h41.849v-2.805c0-17.05-10.434-29.507-26.702-29.507-16.04 0-27.488 12.678-27.488 28.385m27.488-18.736c10.658 0 15.03 7.966 15.258 14.361h-30.517c.561-6.619 5.161-14.361 15.258-14.361m69.1 45.888h11.78v-38.15c0-11.11-5.834-17.39-17.502-17.39-8.527 0-15.483 4.488-19.07 8.751v-7.405h-11.78v54.19h11.78v-37.81c2.693-3.702 7.854-7.293 13.912-7.293 6.619 0 10.883 2.805 10.883 11.219v33.883" fill="#38322d"/><g><path d="m101.23 80.84l8.643 4.988c4.064-7.603 6.438-16.209 6.751-25.338h-9.94c-1.112 0-2.01-.9-2.01-2.01 0-1.108.9-2.01 2.01-2.01h9.94c-.313-9.129-2.687-17.739-6.751-25.338l-8.643 4.988c-.317.181-.663.269-1 .269-.695 0-1.369-.357-1.743-1-.554-.96-.225-2.189.735-2.743l8.599-4.964c-4.699-7.494-11.04-13.832-18.53-18.53l-4.964 8.595c-.373.643-1.048 1-1.743 1-.341 0-.687-.084-1-.269-.96-.554-1.289-1.783-.735-2.743l4.988-8.643c-8.161-4.362-17.466-6.852-27.346-6.852-1.108 0-2.01.9-2.01 2.01v54.22h-54.22c-1.108 0-2.01.9-2.01 2.01 0 9.88 2.49 19.19 6.852 27.346l8.643-4.988c.952-.554 2.185-.229 2.743.735.554.96.225 2.189-.735 2.743l-8.595 4.968c4.699 7.494 11.04 13.832 18.53 18.53l4.964-8.599c.554-.96 1.779-1.293 2.743-.735.96.554 1.289 1.783.735 2.743l-4.988 8.643c7.603 4.06 16.209 6.438 25.338 6.751v-9.94c0-1.108.9-2.01 2.01-2.01 1.108 0 2.01.9 2.01 2.01v9.94c9.129-.313 17.739-2.687 25.338-6.751l-4.988-8.643c-.554-.96-.225-2.189.735-2.743.956-.558 2.185-.229 2.743.735l4.964 8.599c7.494-4.699 13.832-11.04 18.53-18.53l-8.599-4.964c-.96-.554-1.289-1.783-.735-2.743.554-.96 1.779-1.289 2.743-.735" fill="#c33"/><path d="m8.791 32.11l6.956 4.02c.313.185.659.269 1 .269.695 0 1.369-.361 1.743-1 .55-.96.221-2.185-.735-2.739l-6.956-4.02c-.96-.562-2.193-.229-2.747.735-.554.964-.221 2.185.739 2.739m23.856-14.358c.373.643 1.048 1 1.743 1 .341 0 .687-.088 1-.269.96-.55 1.285-1.783.731-2.743l-4.02-6.956c-.558-.964-1.787-1.293-2.743-.735-.96.558-1.285 1.783-.731 2.743l4.02 6.956" fill="#ff9000"/></g></g></svg>