<?xml version="1.0" encoding="UTF-8" standalone="no"?>
<svg width="240px" height="67px" viewBox="0 0 240 67" version="1.1" xmlns="http://www.w3.org/2000/svg" xmlns:xlink="http://www.w3.org/1999/xlink">
    <!-- Generator: Sketch 3.7.2 (28276) - http://www.bohemiancoding.com/sketch -->
    <title>Sprendal</title>
    <desc>Created with Sketch.</desc>
    <defs></defs>
    <g id="Page-1" stroke="none" stroke-width="1" fill="none" fill-rule="evenodd">
        <g id="Logo" transform="translate(-30.000000, -117.000000)" fill="#4990E2">
            <path d="M35.2405406,131.553437 C34.4089156,135.98877 35.5177489,139.523177 37.4582072,141.602239 C38.4284364,142.64177 39.7451759,143.542697 41.3391238,144.30502 C44.5270196,145.760364 47.1604987,146.314781 50.9721132,146.661291 C54.0214048,147.007802 55.6153527,147.28501 57.8330193,148.047333 C60.882311,149.086864 62.4762588,151.027322 61.9218422,154.561728 C60.882311,160.175197 56.2390715,163.016582 47.9228216,163.016582 C41.7549363,163.016582 38.081926,160.383103 36.7651864,155.185447 C36.418676,153.868708 36.0028635,153.591499 34.6861239,154.076614 L31.5675302,155.116145 C30.3893948,155.531958 29.8349782,156.294281 30.0428844,157.472416 C31.7061344,165.372853 37.4582072,169.323072 47.2991029,169.323072 C59.8427797,169.323072 66.9808942,164.679832 68.5748421,155.393353 C69.4757691,150.057093 68.1590296,146.106874 64.9018317,143.889208 C61.6446339,141.740843 58.387436,140.839916 53.7441965,140.2855 C49.7939778,139.800385 47.5070091,139.384573 45.0121342,138.206437 C42.4479571,137.097604 41.4084259,135.087843 41.8935405,132.107854 C42.7944675,127.048802 47.0911966,124.484625 54.7837277,124.484625 C60.8130089,124.484625 63.7929984,126.910198 65.2483421,131.414833 C65.7334567,132.592968 66.1492692,132.800875 67.4660088,132.246458 L70.3766962,130.999021 C71.7627378,130.444604 72.0399462,129.959489 71.6934358,128.781354 C69.4757691,121.851146 64.9018317,118.039531 55.7539569,118.039531 C43.9033008,118.039531 36.8344885,122.890677 35.2405406,131.553437 L35.2405406,131.553437 Z M77.6842157,133.493896 C75.397247,134.394823 74.7735283,135.157146 74.2884137,137.444114 L66.4572784,181.866749 C66.1800701,183.044884 66.4572784,183.529999 67.774018,183.529999 L70.6847055,183.529999 C71.7935388,183.529999 72.4172575,182.975582 72.6251637,181.866749 L75.1893408,167.451916 C78.5158407,168.699353 81.4265282,169.323072 83.852101,169.323072 C93.6929967,169.323072 99.4450695,164.749135 101.039017,155.531958 L102.771569,145.829666 C104.365517,136.681791 100.484601,131.484135 90.7823092,131.484135 C85.7925593,131.484135 81.4265282,132.177156 77.6842157,133.493896 L77.6842157,133.493896 Z M94.9404342,154.977541 C93.9009029,160.729614 90.3664968,163.640301 84.4065177,163.640301 C82.1888511,163.640301 79.4167678,163.016582 76.1595699,161.838447 L80.1097886,139.661781 C80.1790907,139.038062 80.5949032,138.552948 81.3572261,138.206437 C83.782799,137.513416 86.2776739,137.166906 88.9804551,137.166906 C95.0097363,137.166906 97.5739133,140.008291 96.6036841,145.62176 L94.9404342,154.977541 Z M124.216714,131.484135 C119.157662,131.553437 114.860933,132.31576 111.187922,133.6325 C108.900954,134.533427 108.277235,135.29575 107.79212,137.513416 L102.733068,166.620291 C102.525162,167.729124 102.940975,168.283541 104.049808,168.283541 L106.960495,168.283541 C108.069329,168.283541 108.693047,167.729124 108.900954,166.620291 L113.613495,139.731083 C113.752099,139.107364 114.167912,138.62225 114.791631,138.345041 C117.494412,137.582718 120.266495,137.166906 123.10788,137.166906 L125.464151,137.166906 C126.503682,137.166906 127.196703,136.612489 127.40461,135.503656 L127.820422,133.147385 C128.028328,132.038552 127.543214,131.484135 126.43438,131.484135 L124.216714,131.484135 Z M123.693098,154.28452 C122.029848,163.155187 126.118671,169.323072 136.444681,169.323072 C143.652098,169.323072 148.988358,167.036103 152.522764,162.462166 C153.423691,161.353333 153.423691,160.452405 152.38416,159.759385 L150.72091,158.650551 C149.819983,158.026833 148.849754,158.234739 147.879525,159.343572 C145.453952,162.392864 141.988848,163.91751 137.41491,163.91751 C131.316327,163.91751 128.682848,160.93752 129.583775,155.60126 L130.138192,152.62127 C133.811202,153.244989 137.0684,153.591499 139.979087,153.591499 C149.750681,153.591499 155.294847,150.403604 156.611587,144.097114 C158.205535,136.404583 152.869275,131.484135 143.444191,131.484135 C133.464692,131.484135 126.880994,136.543187 125.217744,145.62176 L123.693098,154.28452 Z M150.582306,143.334791 C149.750681,147.007802 146.493483,148.809656 140.810712,148.809656 C137.553514,148.809656 134.296317,148.463145 130.969817,147.770124 L131.385629,145.62176 C132.42516,140.077593 136.652587,136.751093 142.543264,136.751093 C148.641848,136.751093 151.483233,139.107364 150.582306,143.334791 L150.582306,143.334791 Z M162.533065,133.840406 C160.315398,134.741333 159.69168,135.503656 159.206565,137.721323 L154.147513,166.620291 C153.939607,167.798426 154.286117,168.283541 155.464253,168.283541 L158.37494,168.283541 C159.483773,168.283541 160.176794,167.729124 160.3847,166.620291 L165.097242,139.661781 C165.166544,139.038062 165.513054,138.62225 166.136773,138.414343 C168.908856,137.582718 171.68094,137.166906 174.383721,137.166906 C180.205096,137.166906 182.630669,139.938989 181.66044,145.413854 L177.918127,166.620291 C177.710221,167.93703 178.056731,168.283541 179.234867,168.283541 L182.145554,168.283541 C183.254387,168.283541 183.878106,167.729124 184.086012,166.620291 L187.828325,145.691062 C189.283669,136.751093 185.610658,131.484135 176.185575,131.484135 C171.265127,131.484135 166.760492,132.246458 162.533065,133.840406 L162.533065,133.840406 Z M190.492605,154.769635 C188.829355,163.91751 192.848876,169.323072 202.759073,169.323072 C207.333011,169.323072 211.560438,168.630051 215.510656,167.174707 C217.936229,166.27378 218.421344,165.650062 218.906459,163.363093 L226.806896,118.66325 C227.014802,117.34651 226.668292,117 225.490156,117 L222.579469,117 C221.470636,117 220.846917,117.554417 220.639011,118.66325 L218.074834,133.008781 C214.401823,131.96925 211.283229,131.484135 208.64975,131.484135 C199.293969,131.484135 193.819105,135.98877 192.225157,145.067343 L190.492605,154.769635 Z M213.154386,161.214728 C212.946479,162.046353 212.807875,162.184958 211.97625,162.531468 C209.689282,163.293791 207.125105,163.640301 204.283719,163.640301 C198.185136,163.640301 195.620959,160.798916 196.591188,155.185447 L198.254438,145.829666 C199.293969,140.077593 202.828375,137.166906 208.857657,137.166906 C211.144625,137.166906 213.916709,137.65202 217.104604,138.691552 L213.154386,161.214728 Z M223.788405,154.561728 C222.194457,163.432395 226.213978,169.323072 235.569759,169.323072 C240.490207,169.323072 245.272051,168.699353 249.776686,167.382614 C251.162728,167.036103 251.647842,166.620291 251.855748,165.303551 L256.776196,137.444114 C257.122707,135.226448 256.845498,134.672031 254.835738,133.6325 C251.855748,132.177156 247.974832,131.484135 243.054384,131.484135 C232.58977,131.484135 227.184207,135.503656 225.520957,144.859437 L223.788405,154.561728 Z M249.360873,138.206437 C250.192498,138.691552 250.261801,138.830156 250.192498,139.661781 L246.172978,162.323562 C243.26229,163.224489 240.212999,163.640301 237.025103,163.640301 C231.411634,163.640301 228.986061,160.521708 229.886988,155.046843 L231.550238,145.691062 C232.659072,139.592479 235.985572,137.166906 242.569269,137.166906 C244.92554,137.166906 247.212509,137.513416 249.360873,138.206437 L249.360873,138.206437 Z M269.905091,118.66325 C270.182299,117.485115 269.905091,117 268.588351,117 L265.746966,117 C264.56883,117 263.945112,117.554417 263.737205,118.66325 L255.282351,166.620291 C255.074445,167.93703 255.351653,168.283541 256.668393,168.283541 L259.509778,168.283541 C260.618612,168.283541 261.311633,167.729124 261.519539,166.620291 L269.905091,118.66325 Z" id="Sprendal"></path>
        </g>
    </g>
</svg>